<?xml version="1.0" encoding="utf-8"?>
<!-- Svg Vector Icons : http://www.onlinewebfonts.com/icon -->
<!DOCTYPE svg PUBLIC "-//W3C//DTD SVG 1.1//EN" "http://www.w3.org/Graphics/SVG/1.1/DTD/svg11.dtd">
<svg version="1.1" xmlns="http://www.w3.org/2000/svg" xmlns:xlink="http://www.w3.org/1999/xlink" x="0px" y="0px" viewBox="0 0 1000 1000" enable-background="new 0 0 1000 1000" xml:space="preserve">
<metadata> Svg Vector Icons : http://www.onlinewebfonts.com/icon </metadata>
<g><path d="M960.3,716.9c0-10.8,5.8-20.8,15.2-26.1l14.5-8.3L941.1,597l-14.6,8.4c-4.5,2.6-9.7,4-14.9,4c-16.6,0-30.1-13.5-30.1-30.1v-16.8h-97.4v16.8c0,16.6-13.5,30.1-30.1,30.1c-5.3,0-10.4-1.4-14.9-4l-14.6-8.4l-48.9,85.5l14.5,8.3c9.4,5.4,15.2,15.4,15.2,26.1s-5.8,20.8-15.2,26.1l-14.5,8.3l48.9,85.5l14.6-8.4c4.5-2.6,9.7-4,14.9-4c16.6,0,30.1,13.5,30.1,30.1v16.8h97.4v-16.8c0-16.6,13.5-30.1,30.1-30.1c5.3,0,10.4,1.4,14.9,4l14.6,8.4l48.9-85.5l-14.5-8.3C966.1,737.7,960.3,727.7,960.3,716.9z M945.3,761.9L927.5,793c-5.2-1.3-10.5-2-15.9-2c-29.3,0-54,19.9-61.4,46.9h-34.8c-7.4-27-32.1-46.9-61.4-46.9c-5.4,0-10.7,0.7-15.9,2l-17.8-31.2c11.7-11.8,18.6-27.9,18.6-45c0-17-6.9-33.2-18.6-45l17.8-31.2c5.2,1.3,10.5,2,15.9,2c29.3,0,54-19.9,61.4-46.9h34.8c7.4,27,32.1,46.9,61.4,46.9c5.4,0,10.7-0.7,15.9-2l17.8,31.2c-11.7,11.8-18.6,27.9-18.6,45C926.7,734,933.6,750.1,945.3,761.9z"/><path d="M832.8,660.7c-31,0-56.3,25.2-56.3,56.3c0,31,25.2,56.3,56.3,56.3s56.3-25.2,56.3-56.3C889.1,685.9,863.8,660.7,832.8,660.7z M832.8,739.7c-12.5,0-22.7-10.2-22.7-22.7s10.2-22.7,22.7-22.7s22.7,10.2,22.7,22.7C855.5,729.5,845.3,739.7,832.8,739.7z"/><path d="M43.6,227.9v-11.6v-54.2H452v54.2h0.4V233H894v304.3h33.6V199.5h-442v-70.9H10v87.7v11.6v582.5h654.5l-19-33.6h-602V227.9z"/><path d="M486.6,373.9h316.9v33.3H486.6V373.9z"/><path d="M486.6,468.1h316.9v33.3H486.6V468.1z"/><path d="M486.6,562.3h183.4v33.3H486.6V562.3z"/><path d="M190.2,528.5c-7.7,4.4-16.3,7.2-24.4,11c-12.3,6-25.2,11.3-36.7,18.4c-14.9,9.2-23.6,22.7-23.8,41.1h263.2c-1.2-16.4-6.7-30.7-20.8-39c-16.3-9.3-33.5-17.6-51.1-25.2c-23.2-9.8-27.7-15-27.5-40.6c0.2-4.2,0.8-8.8,2.4-12.7c3.5-9,7.4-18,11.4-26.8c1.1-2.4,2.3-4.8,4-6.5c8.9-8.2,11-18.5,5.8-29.9c-0.9-1.8-1.1-4.2-0.9-6.7c1.5-13.1,4-26.2,4.8-39.6c1.2-16.9-5.2-36.6-27.2-41.4c-1.2-0.2-2.7-0.6-3.2-1.5c-7-9.7-17.9-10.8-28.1-10.9c-31.6-0.4-52.9,12-58.6,40.7c-3.3,16.4-0.8,32.5,1.7,48.9c0.5,3.9,0,8.7-1.6,12.6c-3.4,9.2-2.4,18.5,4,25.2c4.8,5.1,7,10.5,9.1,16.5c1.5,4.2,2.6,9.1,5.4,12c7.9,8.3,7.1,18.4,7.4,28.5C206.3,514.5,200.2,523,190.2,528.5z"/></g>
</svg>